<svg xmlns="http://www.w3.org/2000/svg" version="1.1" xmlns:xlink="http://www.w3.org/1999/xlink" xmlns:svgjs="http://svgjs.com/svgjs" width="598.92" height="571.56"><svg id="SvgjsSvg1001" data-name="Layer 1" xmlns="http://www.w3.org/2000/svg" viewBox="0 0 598.92 571.56"><defs><style>.cls-1{fill:#a2b2d2;}.cls-2{fill:#5b7fb1;}.cls-3{fill:#005996;}.cls-4{fill:#00355f;}.cls-5{fill:#fff;}</style></defs><title>m3</title><g id="SvgjsG1000"><path class="cls-1" d="M43,289.37c-5.55-38.25-5.2-72.3-.07-102.32C19.61,229.88,9.77,286.41,20.06,357.24c35.62,246,286.81,231,424.79,122.77-118.63,64.6-280.86,66.76-349-63.61.48.88.92,1.83,1.4,2.71-26.75-31-46.16-73.53-54.31-129.74"></path><path class="cls-2" d="M43,187.16c-5.13,30-5.49,64.08.07,102.32,8.14,56.21,27.55,98.78,54.3,129.74-.48-.88-.91-1.82-1.38-2.72-.82-1.56-1.62-3.14-2.42-4.74-1.82-3.69-3.57-7.47-5.25-11.37-.54-1.27-1.06-2.53-1.57-3.81-1.59-3.86-3.08-7.82-4.5-11.87-.56-1.56-1.1-3.13-1.62-4.73-1.61-4.8-3.12-9.68-4.5-14.75-.14-.5-.26-1-.39-1.51-1.35-5-2.56-10.24-3.68-15.55-.32-1.5-.63-3-.93-4.5C70,337.9,68.91,332,68,326c-.83-5.8-1.5-11.48-2.08-17.09-.17-1.69-.31-3.35-.45-5-.36-4-.66-8-.87-11.94-.1-1.71-.21-3.4-.28-5.08q-.3-6.92-.32-13.6c0-.74,0-1.5,0-2.23,0-5.15.19-10.19.46-15.16.06-1.39.18-2.74.27-4.11q.36-5.47.91-10.8c.16-1.51.32-3,.5-4.52q.69-5.65,1.6-11.11c.15-1,.28-1.94.45-2.89.79-4.54,1.7-9,2.72-13.32.24-1,.52-2,.77-3q1.25-5,2.67-9.86c.39-1.29.78-2.58,1.18-3.85,1-3.16,2.06-6.25,3.16-9.3.36-1,.69-2,1-2.91,1.51-3.93,3.1-7.78,4.8-11.53.28-.62.6-1.23.89-1.87q2.18-4.65,4.53-9.1c.56-1.06,1.14-2.11,1.72-3.15,1.46-2.64,3-5.23,4.55-7.76.54-.89,1.08-1.79,1.64-2.67,2.14-3.33,4.34-6.59,6.65-9.74.12-.17.27-.33.38-.5,2.18-2.95,4.45-5.8,6.77-8.58.69-.82,1.4-1.64,2.1-2.45q2.85-3.27,5.81-6.39c.72-.76,1.43-1.53,2.17-2.28,2.62-2.65,5.29-5.24,8-7.73l.1-.09C93.62,123.09,63.21,150,43,187.16"></path><path class="cls-3" d="M534.18,337.69c4.92-44.7-9.59-92.28-51.83-138.62C398.07,106.6,274.08,68.81,175.16,90.92a224,224,0,0,0-45.33,15.26l-.1.09c-2.77,2.48-5.44,5.08-8.06,7.74-.73.74-1.45,1.5-2.16,2.27q-3,3.12-5.81,6.39c-.7.82-1.42,1.62-2.11,2.46-2.32,2.78-4.58,5.62-6.76,8.56-.12.17-.27.34-.38.51-2.31,3.14-4.51,6.41-6.65,9.74-.56.87-1.1,1.77-1.65,2.66q-2.34,3.81-4.54,7.77c-.58,1-1.16,2.08-1.72,3.14q-2.37,4.47-4.53,9.12c-.29.62-.61,1.23-.9,1.86-1.7,3.75-3.28,7.59-4.79,11.53-.36.95-.7,1.93-1,2.9-1.11,3.05-2.18,6.14-3.17,9.29-.4,1.28-.79,2.57-1.18,3.87q-1.42,4.84-2.66,9.85c-.25,1-.53,2-.77,3.07q-1.53,6.51-2.73,13.3c-.16,1-.3,1.94-.45,2.9-.6,3.64-1.14,7.35-1.59,11.11-.18,1.5-.35,3-.49,4.52-.38,3.54-.68,7.15-.92,10.79-.1,1.37-.22,2.73-.28,4.12-.26,5-.43,10-.45,15.16,0,.73,0,1.48,0,2.22,0,4.46.12,9,.33,13.61.07,1.67.17,3.38.27,5.07q.33,5.91.88,11.94c.14,1.69.28,3.35.45,5,.58,5.61,1.24,11.28,2.07,17.09.9,6.08,2,11.95,3.1,17.71.3,1.52.6,3,.92,4.5,1.13,5.31,2.34,10.52,3.68,15.56.14.5.25,1,.39,1.5,1.38,5.06,2.9,10,4.5,14.76.52,1.59,1.07,3.17,1.62,4.74,1.43,4,2.92,8,4.5,11.85.52,1.28,1,2.57,1.58,3.82,1.67,3.9,3.43,7.67,5.25,11.36.79,1.61,1.6,3.19,2.41,4.74.55,1,1.13,2,1.7,3.07,113.69,131,359.17,52.78,436.57-81.79"></path><path class="cls-1" d="M223,59.58c99-22.12,222.91,15.67,307.2,108.14,2.65,2.9,5.1,5.81,7.53,8.73a228.05,228.05,0,0,0-32.54-45.19C420.87,38.79,296.9,1,198,23.11,120.63,40.4,58.63,94.3,42.79,187.25c20.66-38,51.94-65.23,89.22-82-.77.35-1.54.63-2.31,1,26-23.3,58-38.77,93.26-46.65"></path><path class="cls-2" d="M537.8,176.43c-2.44-2.92-4.88-5.83-7.53-8.74C446,75.23,322,37.43,223.07,59.56c-35.24,7.87-67.3,23.35-93.26,46.65.75-.35,1.53-.64,2.29-1,2-.91,4-1.77,6.07-2.62,1.42-.58,2.84-1.17,4.28-1.72,2.18-.85,4.37-1.64,6.57-2.41,1.36-.49,2.71-1,4.08-1.42,2.45-.81,5-1.56,7.45-2.29,1.15-.34,2.29-.7,3.46-1,3.68-1,7.38-2,11.14-2.79,98.92-22.12,222.91,15.67,307.19,108.14,2.79,3.06,5.44,6.11,8,9.18.87,1,1.65,2.08,2.48,3.11,1.64,2,3.27,4.07,4.8,6.11.94,1.24,1.82,2.48,2.71,3.74,1.32,1.82,2.64,3.65,3.87,5.47.91,1.34,1.76,2.68,2.63,4,1.12,1.75,2.22,3.48,3.28,5.22.83,1.4,1.64,2.78,2.44,4.17,1,1.69,1.89,3.37,2.79,5.06.76,1.43,1.51,2.86,2.23,4.28.81,1.64,1.6,3.29,2.36,4.93.67,1.46,1.35,2.92,2,4.38s1.34,3.22,2,4.82,1.18,3,1.72,4.44,1.08,3.15,1.6,4.73,1,3,1.47,4.49.81,3,1.22,4.53c1,3.83,1.91,7.66,2.63,11.46.11.6.25,1.21.36,1.82.32,1.79.54,3.58.78,5.36.18,1.22.38,2.44.52,3.66.2,1.77.32,3.53.46,5.29.1,1.24.21,2.47.28,3.69.09,1.76.13,3.51.16,5.26,0,1.21.05,2.44,0,3.65,0,1.76-.06,3.49-.13,5.23-.05,1.21-.1,2.42-.18,3.63-.11,1.74-.26,3.46-.42,5.19-.06.54-.08,1.08-.13,1.6,28-48.75,33.94-104.91,3.57-161.19"></path><path class="cls-1" d="M537.71,176.1c30.37,56.29,24.44,112.44-3.57,161.2.06-.52.08-1.06.13-1.6-5.43,54.83-40.21,105.39-89.5,144.06C561.12,416.41,635.4,293.12,537.71,176.1"></path><path class="cls-2" d="M534.12,337.57q-2.32,4.08-4.88,8.06c-.55.88-1.16,1.75-1.74,2.64-1.18,1.79-2.36,3.58-3.59,5.35-.74,1.08-1.53,2.13-2.29,3.19-1.14,1.56-2.26,3.12-3.44,4.67-.84,1.12-1.74,2.23-2.62,3.35-1.14,1.45-2.29,2.89-3.47,4.34-.94,1.13-1.9,2.25-2.86,3.38-1.19,1.39-2.38,2.76-3.6,4.13q-1.51,1.71-3.05,3.37c-1.23,1.34-2.49,2.65-3.77,4-1.06,1.11-2.11,2.22-3.21,3.3-1.3,1.32-2.63,2.62-4,3.91l-3.3,3.18c-1.4,1.3-2.83,2.59-4.28,3.9-1.09,1-2.16,2-3.28,2.95-1.58,1.38-3.19,2.73-4.79,4.08-1,.86-2,1.73-3.07,2.59-2.28,1.88-4.61,3.71-7,5.52l-2.8,2.15c-2.18,1.64-4.38,3.29-6.62,4.89-1.11.8-2.25,1.57-3.37,2.36-1.75,1.22-3.5,2.45-5.28,3.65-1.25.84-2.53,1.65-3.79,2.49-1.69,1.1-3.38,2.2-5.1,3.28-1.32.83-2.67,1.64-4,2.46q-2.53,1.54-5.1,3.07c-1.37.79-2.75,1.59-4.13,2.37-1.73,1-3.46,2-5.22,2.93l-4.16,2.24c-1.79,1-3.6,1.89-5.41,2.81l-4.12,2.08c-1.9.93-3.81,1.86-5.73,2.75-1.32.63-2.65,1.25-4,1.86-2.06.95-4.14,1.86-6.22,2.77-1.2.53-2.41,1.07-3.62,1.58-2.49,1.05-5,2.05-7.48,3.05-.83.33-1.66.68-2.5,1-3.38,1.33-6.78,2.58-10.2,3.8l-1,.33q-4.61,1.62-9.25,3.13c-1,.31-2,.6-3,.92-2.45.76-4.91,1.52-7.38,2.24l-3.5,1c-2.31.63-4.62,1.28-6.94,1.87l-3.71.91q-3.4.82-6.81,1.6c-1.26.27-2.51.55-3.79.81-2.28.49-4.55.94-6.84,1.37q-1.85.36-3.69.69c-2.36.42-4.72.8-7.09,1.16-1.15.18-2.29.37-3.45.54q-3.76.53-7.52,1l-3,.36c-2.85.32-5.69.57-8.53.8-.66.07-1.31.14-2,.18a285.08,285.08,0,0,1-32,.65l-1.66-.08c-2.91-.13-5.79-.28-8.68-.5l-2.47-.22c-2.62-.22-5.23-.47-7.83-.78l-2.75-.35c-2.51-.33-5-.68-7.48-1.07l-2.83-.47c-2.46-.43-4.92-.9-7.36-1.39-.9-.18-1.8-.37-2.71-.58-2.51-.55-5-1.13-7.49-1.76-.8-.21-1.6-.4-2.4-.62q-4-1.05-7.9-2.28c-.6-.16-1.2-.35-1.8-.53-3.07-1-6.12-2-9.13-3.12l-.37-.14a195.25,195.25,0,0,1-28-12.94l-1.3-.76c-2.48-1.42-4.94-2.88-7.34-4.42-.66-.4-1.29-.84-1.92-1.25q-3.3-2.14-6.51-4.44c-.71-.5-1.42-1-2.13-1.55-2.05-1.51-4.07-3.07-6.07-4.66l-2.15-1.76c-2-1.62-3.9-3.3-5.8-5-.69-.62-1.38-1.24-2-1.86-2-1.8-3.84-3.66-5.73-5.56l-1.78-1.8c-2-2.07-4-4.23-5.88-6.43-.33-.37-.68-.71-1-1.09,68.9,127.65,229.69,125,347.49,60.9,48.82-38.28,83.5-88.23,89.44-142.45"></path><path class="cls-4" d="M109.29,305.53c0-10.16,1.21-16.57,2.34-26.13.19-1.62,1.33-10,1.33-12a93.3,93.3,0,0,1,2.86-21.11c6.12-22.25,4.08-38,33.27-38,8.55,0,13.44,4.06,13.44,12.95,0,11.74-3.27,21.44-3.27,33.62,9.37-15.41,36.21-51.42,63.07-51.42,28,.41,36.16,31.15,39.81,54.25C285.82,224,305,203.37,323,203.37c35-.4,47.37,36,47.37,76v2c-.8,40.77-2.41,39.95-4.81,65-.81,8.89-6.41,22.61-15.64,22.61-3.26,0-5.3-2-5.3-7.27,0-4.83,1.64-11.29,1.64-14.12.8-10.49,4.07-33.51,4.07-54.51,0-23.4-4.07-44.41-19.19-44.41-36.72.41-63.65,89.22-68.13,113.86-1.23,7.27-5.68,17.76-14.62,17.76-7.31,0-8.94-8.48-8.94-14.14,0-6.85,2-33.49,2-60.25,0-30.45-2.86-60.51-14.68-60.51-31.39,0-66.85,87.71-66.85,115.31,0,10.57-2.45,16.25-14.29,16.25-33.48,0-32.25-12.18-35.52-39.37-.82-5.69-.82-12.6-.82-19.5Z"></path><path class="cls-4" d="M410.67,279c-3,0-12.62,0-12.62-4.25a3.5,3.5,0,0,1,3.63-3.38c2.51,0,5.87,1.36,8.12,1.36a26.53,26.53,0,0,0,6.24-.36c2.27-.54,9-4.25,10.24-6a21.07,21.07,0,0,0,4.38-12.6c0-9.74-8.12-14.36-14.7-15.85-2-.51-3.12-1.37-3.12-2.37s1.12-2,3.12-2.63c6-1.86,13.24-6.23,13.24-15.22,0-4.37-.36-8-3.87-11-5.5-5-7.37-6.37-15.87-6.37-2.23,0-6,1.76-8.73,1.76a3.37,3.37,0,0,1-3.5-3.25c0-4.5,14.11-4.5,17.49-4.5,14.36,0,31,6.62,30.86,22,0,9-6,17.46-13.18,18.6,3.12.87,15.59,3.35,15.59,18.22,0,24.6-31.56,25.84-37.32,25.84"></path><path class="cls-5" d="M109,308.16a209.87,209.87,0,0,1,1.79-27c.19-1.61,1.91-20.72,4.32-32.13,4.79-22.58,4.51-38.15,33.69-38.15,8.55,0,13.44,4.07,13.44,13,0,11.73-3.27,21.43-3.27,33.61C168.32,242,195.16,206,222,206c28,.41,36.16,31.15,39.81,54.26C285.52,226.63,304.69,206,322.65,206c34.94-.4,47.37,36,47.37,76v2c-.8,40.77-2.41,40-4.81,65-.81,8.88-6.41,22.6-15.64,22.6-3.26,0-5.3-2-5.3-7.27,0-4.83,1.64-11.29,1.64-14.12.81-10.49,4.07-33.51,4.07-54.51,0-23.4-4.07-44.41-19.18-44.41-36.73.42-63.66,89.23-68.14,113.85C261.44,372.47,257,383,248,383c-7.3,0-8.93-8.47-8.93-14.14,0-6.86,2-33.49,2-60.25,0-30.44-2.85-60.51-14.68-60.51-31.39,0-66.85,87.71-66.85,115.31,0,10.57-2.45,16.26-14.29,16.26-33.48,0-32.25-12.19-35.52-39.38-.82-5.7-.82-12.59-.82-19.5Z"></path><path class="cls-5" d="M410.36,281.68c-3,0-12.62,0-12.62-4.27a3.5,3.5,0,0,1,3.63-3.37c2.51,0,5.87,1.36,8.12,1.36a39.28,39.28,0,0,0,8-.77,19.09,19.09,0,0,0,8.44-5.58,21.06,21.06,0,0,0,4.38-12.59c0-9.74-8.12-14.37-14.7-15.86-2-.51-3.11-1.37-3.11-2.37s1.12-2,3.11-2.63c6-1.86,13.25-6.23,13.25-15.22,0-4.37-.38-8-3.88-11-5.5-5-7.36-6.36-15.86-6.36-2.24,0-6,1.75-8.74,1.75a3.37,3.37,0,0,1-3.5-3.25c0-4.5,14.11-4.5,17.49-4.5,14.36,0,31,6.62,30.86,22,0,9-6,17.46-13.18,18.59,3.12.87,15.59,3.36,15.59,18.22,0,24.61-31.56,25.86-37.32,25.86"></path></g></svg><style>@media (prefers-color-scheme: light) { :root { filter: none; } }
</style></svg>